<svg width="15385" height="2337" viewBox="0 0 15385 2337" fill="none" xmlns="http://www.w3.org/2000/svg">
<path fill-rule="evenodd" clip-rule="evenodd" d="M0.472656 0H15054.8V2337H1612.47L0.472656 0ZM0.472656 0L1612.47 2306.94L15054.8 2337V0H0.472656Z" fill="#22C900"/>
<path d="M1612.47 2306.94L0.472656 0H15054.8V2337L1612.47 2306.94Z" fill="#22C900"/>
<path fill-rule="evenodd" clip-rule="evenodd" d="M143.847 0H15198.1V2337H1755.84L143.847 0ZM143.847 0L1755.84 2306.94L15198.1 2337V0H143.847Z" fill="#1A8C04"/>
<path d="M1755.84 2306.94L143.847 0H15198.1V2337L1755.84 2306.94Z" fill="#1A8C04"/>
<path fill-rule="evenodd" clip-rule="evenodd" d="M330.233 0H15384.5V2337H1942.23L330.233 0ZM330.233 0L1942.23 2306.94L15384.5 2337V0H330.233Z" fill="#0F0E0C"/>
<path d="M1942.23 2306.94L330.233 0H15384.5V2337L1942.23 2306.94Z" fill="#0F0E0C"/>
</svg>
